# xmcd
#
# Track frame offsets:
#        150
#        13552
#        30507
#        44630
#        69535
#        75590
#        92850
#        106170
#        117675
#        136077
#        151650
#
# Disc length: 2117 seconds
#
# Revision: 1
# Processed by: cddbd v1.5.1PL2 Copyright (c) Steve Scherf et al.
# Submitted via: ExactAudioCopy v0.95b3
#
DISCID=8408430b
DTITLE=Neil Young - After The Gold Rush
DYEAR=1970
DGENRE=Rock
TTITLE0=Tell Me Why
TTITLE1=After The Goldrush
TTITLE2=Only Love Can Break Your Heart
TTITLE3=Southern Man
TTITLE4=Till The Morning Comes
TTITLE5=Oh, Lonesome Me
TTITLE6=Don't Let It Bring You Down
TTITLE7=Birds
TTITLE8=When You Dance You Can Really Love
TTITLE9=I Believe In You
TTITLE10=Cripple Creek Ferry
EXTD=Produced by Neil Young and David Briggs with\nKendall Pacios\nREP
EXTD=RISE  7599-27243-2\n
EXTT0=
EXTT1=
EXTT2=
EXTT3=
EXTT4=
EXTT5=
EXTT6=
EXTT7=
EXTT8=
EXTT9=
EXTT10=
PLAYORDER=
